<svg width="236" height="56" viewBox="0 0 236 56" fill="none" xmlns="http://www.w3.org/2000/svg">
<path d="M226 0.769043H10C4.47715 0.769043 0 4.63461 0 9.40302V46.5291C0 51.2976 4.47715 55.1631 10 55.1631H226C231.523 55.1631 236 51.2976 236 46.5291V9.40302C236 4.63461 231.523 0.769043 226 0.769043Z" fill="#E0B973"/>
<mask id="path-2-outside-1_1_383" maskUnits="userSpaceOnUse" x="70.18" y="19.3102" width="101" height="18" fill="black">
<rect fill="white" x="70.18" y="19.3102" width="101" height="18"/>
<path d="M72.78 27.5702H80.18V28.8302H72.78V27.5702ZM72.94 34.0302H81.36V35.3102H71.46V21.3102H81.06V22.5902H72.94V34.0302ZM83.7231 35.3102L89.4631 27.5502V28.6902L84.0631 21.3102H85.7631L90.3031 27.4702L89.6431 27.4902L94.1831 21.3102H95.7831L90.4431 28.5902V27.5502L96.1631 35.3102H94.4431L89.6031 28.7302H90.2231L85.4231 35.3102H83.7231ZM99.2998 35.3102V21.3102H104.54C105.727 21.3102 106.747 21.5035 107.6 21.8902C108.453 22.2635 109.107 22.8102 109.56 23.5302C110.027 24.2368 110.26 25.0968 110.26 26.1102C110.26 27.0968 110.027 27.9502 109.56 28.6702C109.107 29.3768 108.453 29.9235 107.6 30.3102C106.747 30.6968 105.727 30.8902 104.54 30.8902H100.12L100.78 30.1902V35.3102H99.2998ZM100.78 30.3102L100.12 29.5902H104.5C105.9 29.5902 106.96 29.2902 107.68 28.6902C108.413 28.0768 108.78 27.2168 108.78 26.1102C108.78 24.9902 108.413 24.1235 107.68 23.5102C106.96 22.8968 105.9 22.5902 104.5 22.5902H100.12L100.78 21.8902V30.3102ZM114.46 35.3102V21.3102H115.94V34.0302H123.78V35.3102H114.46ZM133.084 35.4302C132.031 35.4302 131.051 35.2568 130.144 34.9102C129.251 34.5502 128.471 34.0502 127.804 33.4102C127.151 32.7568 126.637 32.0035 126.264 31.1502C125.904 30.2835 125.724 29.3368 125.724 28.3102C125.724 27.2835 125.904 26.3435 126.264 25.4902C126.637 24.6235 127.151 23.8702 127.804 23.2302C128.471 22.5768 129.251 22.0768 130.144 21.7302C131.037 21.3702 132.017 21.1902 133.084 21.1902C134.137 21.1902 135.111 21.3702 136.004 21.7302C136.897 22.0768 137.671 22.5702 138.324 23.2102C138.991 23.8502 139.504 24.6035 139.864 25.4702C140.237 26.3368 140.424 27.2835 140.424 28.3102C140.424 29.3368 140.237 30.2835 139.864 31.1502C139.504 32.0168 138.991 32.7702 138.324 33.4102C137.671 34.0502 136.897 34.5502 136.004 34.9102C135.111 35.2568 134.137 35.4302 133.084 35.4302ZM133.084 34.1102C133.924 34.1102 134.697 33.9702 135.404 33.6902C136.124 33.3968 136.744 32.9902 137.264 32.4702C137.797 31.9368 138.211 31.3235 138.504 30.6302C138.797 29.9235 138.944 29.1502 138.944 28.3102C138.944 27.4702 138.797 26.7035 138.504 26.0102C138.211 25.3035 137.797 24.6902 137.264 24.1702C136.744 23.6368 136.124 23.2302 135.404 22.9502C134.697 22.6568 133.924 22.5102 133.084 22.5102C132.244 22.5102 131.464 22.6568 130.744 22.9502C130.024 23.2302 129.397 23.6368 128.864 24.1702C128.344 24.6902 127.931 25.3035 127.624 26.0102C127.331 26.7035 127.184 27.4702 127.184 28.3102C127.184 29.1368 127.331 29.9035 127.624 30.6102C127.931 31.3168 128.344 31.9368 128.864 32.4702C129.397 32.9902 130.024 33.3968 130.744 33.6902C131.464 33.9702 132.244 34.1102 133.084 34.1102ZM144.741 35.3102V21.3102H149.981C151.168 21.3102 152.188 21.5035 153.041 21.8902C153.895 22.2635 154.548 22.8102 155.001 23.5302C155.468 24.2368 155.701 25.0968 155.701 26.1102C155.701 27.0968 155.468 27.9502 155.001 28.6702C154.548 29.3768 153.895 29.9235 153.041 30.3102C152.188 30.6835 151.168 30.8702 149.981 30.8702H145.561L146.221 30.1902V35.3102H144.741ZM154.301 35.3102L150.701 30.2302H152.301L155.921 35.3102H154.301ZM146.221 30.3102L145.561 29.6102H149.941C151.341 29.6102 152.401 29.3035 153.121 28.6902C153.855 28.0768 154.221 27.2168 154.221 26.1102C154.221 24.9902 153.855 24.1235 153.121 23.5102C152.401 22.8968 151.341 22.5902 149.941 22.5902H145.561L146.221 21.8902V30.3102ZM161.514 27.5702H168.914V28.8302H161.514V27.5702ZM161.674 34.0302H170.094V35.3102H160.194V21.3102H169.794V22.5902H161.674V34.0302Z"/>
</mask>
<path d="M72.78 27.5702H80.18V28.8302H72.78V27.5702ZM72.94 34.0302H81.36V35.3102H71.46V21.3102H81.06V22.5902H72.94V34.0302ZM83.7231 35.3102L89.4631 27.5502V28.6902L84.0631 21.3102H85.7631L90.3031 27.4702L89.6431 27.4902L94.1831 21.3102H95.7831L90.4431 28.5902V27.5502L96.1631 35.3102H94.4431L89.6031 28.7302H90.2231L85.4231 35.3102H83.7231ZM99.2998 35.3102V21.3102H104.54C105.727 21.3102 106.747 21.5035 107.6 21.8902C108.453 22.2635 109.107 22.8102 109.56 23.5302C110.027 24.2368 110.26 25.0968 110.26 26.1102C110.26 27.0968 110.027 27.9502 109.56 28.6702C109.107 29.3768 108.453 29.9235 107.6 30.3102C106.747 30.6968 105.727 30.8902 104.54 30.8902H100.12L100.78 30.1902V35.3102H99.2998ZM100.78 30.3102L100.12 29.5902H104.5C105.9 29.5902 106.96 29.2902 107.68 28.6902C108.413 28.0768 108.78 27.2168 108.78 26.1102C108.78 24.9902 108.413 24.1235 107.68 23.5102C106.96 22.8968 105.9 22.5902 104.5 22.5902H100.12L100.78 21.8902V30.3102ZM114.46 35.3102V21.3102H115.94V34.0302H123.78V35.3102H114.46ZM133.084 35.4302C132.031 35.4302 131.051 35.2568 130.144 34.9102C129.251 34.5502 128.471 34.0502 127.804 33.4102C127.151 32.7568 126.637 32.0035 126.264 31.1502C125.904 30.2835 125.724 29.3368 125.724 28.3102C125.724 27.2835 125.904 26.3435 126.264 25.4902C126.637 24.6235 127.151 23.8702 127.804 23.2302C128.471 22.5768 129.251 22.0768 130.144 21.7302C131.037 21.3702 132.017 21.1902 133.084 21.1902C134.137 21.1902 135.111 21.3702 136.004 21.7302C136.897 22.0768 137.671 22.5702 138.324 23.2102C138.991 23.8502 139.504 24.6035 139.864 25.4702C140.237 26.3368 140.424 27.2835 140.424 28.3102C140.424 29.3368 140.237 30.2835 139.864 31.1502C139.504 32.0168 138.991 32.7702 138.324 33.4102C137.671 34.0502 136.897 34.5502 136.004 34.9102C135.111 35.2568 134.137 35.4302 133.084 35.4302ZM133.084 34.1102C133.924 34.1102 134.697 33.9702 135.404 33.6902C136.124 33.3968 136.744 32.9902 137.264 32.4702C137.797 31.9368 138.211 31.3235 138.504 30.6302C138.797 29.9235 138.944 29.1502 138.944 28.3102C138.944 27.4702 138.797 26.7035 138.504 26.0102C138.211 25.3035 137.797 24.6902 137.264 24.1702C136.744 23.6368 136.124 23.2302 135.404 22.9502C134.697 22.6568 133.924 22.5102 133.084 22.5102C132.244 22.5102 131.464 22.6568 130.744 22.9502C130.024 23.2302 129.397 23.6368 128.864 24.1702C128.344 24.6902 127.931 25.3035 127.624 26.0102C127.331 26.7035 127.184 27.4702 127.184 28.3102C127.184 29.1368 127.331 29.9035 127.624 30.6102C127.931 31.3168 128.344 31.9368 128.864 32.4702C129.397 32.9902 130.024 33.3968 130.744 33.6902C131.464 33.9702 132.244 34.1102 133.084 34.1102ZM144.741 35.3102V21.3102H149.981C151.168 21.3102 152.188 21.5035 153.041 21.8902C153.895 22.2635 154.548 22.8102 155.001 23.5302C155.468 24.2368 155.701 25.0968 155.701 26.1102C155.701 27.0968 155.468 27.9502 155.001 28.6702C154.548 29.3768 153.895 29.9235 153.041 30.3102C152.188 30.6835 151.168 30.8702 149.981 30.8702H145.561L146.221 30.1902V35.3102H144.741ZM154.301 35.3102L150.701 30.2302H152.301L155.921 35.3102H154.301ZM146.221 30.3102L145.561 29.6102H149.941C151.341 29.6102 152.401 29.3035 153.121 28.6902C153.855 28.0768 154.221 27.2168 154.221 26.1102C154.221 24.9902 153.855 24.1235 153.121 23.5102C152.401 22.8968 151.341 22.5902 149.941 22.5902H145.561L146.221 21.8902V30.3102ZM161.514 27.5702H168.914V28.8302H161.514V27.5702ZM161.674 34.0302H170.094V35.3102H160.194V21.3102H169.794V22.5902H161.674V34.0302Z" fill="white"/>
<path d="M72.78 27.5702V26.5702H71.78V27.5702H72.78ZM80.18 27.5702H81.18V26.5702H80.18V27.5702ZM80.18 28.8302V29.8302H81.18V28.8302H80.18ZM72.78 28.8302H71.78V29.8302H72.78V28.8302ZM72.94 34.0302H71.94V35.0302H72.94V34.0302ZM81.36 34.0302H82.36V33.0302H81.36V34.0302ZM81.36 35.3102V36.3102H82.36V35.3102H81.36ZM71.46 35.3102H70.46V36.3102H71.46V35.3102ZM71.46 21.3102V20.3102H70.46V21.3102H71.46ZM81.06 21.3102H82.06V20.3102H81.06V21.3102ZM81.06 22.5902V23.5902H82.06V22.5902H81.06ZM72.94 22.5902V21.5902H71.94V22.5902H72.94ZM72.78 28.5702H80.18V26.5702H72.78V28.5702ZM79.18 27.5702V28.8302H81.18V27.5702H79.18ZM80.18 27.8302H72.78V29.8302H80.18V27.8302ZM73.78 28.8302V27.5702H71.78V28.8302H73.78ZM72.94 35.0302H81.36V33.0302H72.94V35.0302ZM80.36 34.0302V35.3102H82.36V34.0302H80.36ZM81.36 34.3102H71.46V36.3102H81.36V34.3102ZM72.46 35.3102V21.3102H70.46V35.3102H72.46ZM71.46 22.3102H81.06V20.3102H71.46V22.3102ZM80.06 21.3102V22.5902H82.06V21.3102H80.06ZM81.06 21.5902H72.94V23.5902H81.06V21.5902ZM71.94 22.5902V34.0302H73.94V22.5902H71.94ZM83.7231 35.3102L82.9192 34.7155L81.7396 36.3102H83.7231V35.3102ZM89.4631 27.5502H90.4631V24.5167L88.6592 26.9555L89.4631 27.5502ZM89.4631 28.6902L88.6561 29.2807L90.4631 31.7503V28.6902H89.4631ZM84.0631 21.3102V20.3102H82.0923L83.2561 21.9007L84.0631 21.3102ZM85.7631 21.3102L86.5681 20.7169L86.2684 20.3102H85.7631V21.3102ZM90.3031 27.4702L90.3334 28.4697L92.2395 28.412L91.1081 26.8769L90.3031 27.4702ZM89.6431 27.4902L88.8372 26.8981L87.6223 28.5519L89.6734 28.4897L89.6431 27.4902ZM94.1831 21.3102V20.3102H93.6769L93.3772 20.7181L94.1831 21.3102ZM95.7831 21.3102L96.5895 21.9016L97.7568 20.3102H95.7831V21.3102ZM90.4431 28.5902H89.4431V31.6442L91.2495 29.1816L90.4431 28.5902ZM90.4431 27.5502L91.2481 26.9568L89.4431 24.5082V27.5502H90.4431ZM96.1631 35.3102V36.3102H98.1425L96.9681 34.7168L96.1631 35.3102ZM94.4431 35.3102L93.6376 35.9027L93.9373 36.3102H94.4431V35.3102ZM89.6031 28.7302V27.7302H87.6262L88.7976 29.3227L89.6031 28.7302ZM90.2231 28.7302L91.031 29.3195L92.1904 27.7302H90.2231V28.7302ZM85.4231 35.3102V36.3102H85.9314L86.231 35.8995L85.4231 35.3102ZM84.5271 35.9049L90.2671 28.1449L88.6592 26.9555L82.9192 34.7155L84.5271 35.9049ZM88.4631 27.5502V28.6902H90.4631V27.5502H88.4631ZM90.2701 28.0997L84.8701 20.7197L83.2561 21.9007L88.6561 29.2807L90.2701 28.0997ZM84.0631 22.3102H85.7631V20.3102H84.0631V22.3102ZM84.9581 21.9035L89.4981 28.0635L91.1081 26.8769L86.5681 20.7169L84.9581 21.9035ZM90.2728 26.4706L89.6128 26.4906L89.6734 28.4897L90.3334 28.4697L90.2728 26.4706ZM90.449 28.0822L94.989 21.9022L93.3772 20.7181L88.8372 26.8981L90.449 28.0822ZM94.1831 22.3102H95.7831V20.3102H94.1831V22.3102ZM94.9768 20.7187L89.6368 27.9987L91.2495 29.1816L96.5895 21.9016L94.9768 20.7187ZM91.4431 28.5902V27.5502H89.4431V28.5902H91.4431ZM89.6382 28.1435L95.3582 35.9035L96.9681 34.7168L91.2481 26.9568L89.6382 28.1435ZM96.1631 34.3102H94.4431V36.3102H96.1631V34.3102ZM95.2487 34.7176L90.4087 28.1376L88.7976 29.3227L93.6376 35.9027L95.2487 34.7176ZM89.6031 29.7302H90.2231V27.7302H89.6031V29.7302ZM89.4152 28.1408L84.6152 34.7208L86.231 35.8995L91.031 29.3195L89.4152 28.1408ZM85.4231 34.3102H83.7231V36.3102H85.4231V34.3102ZM99.2998 35.3102H98.2998V36.3102H99.2998V35.3102ZM99.2998 21.3102V20.3102H98.2998V21.3102H99.2998ZM107.6 21.8902L107.187 22.8011L107.199 22.8063L107.6 21.8902ZM109.56 23.5302L108.714 24.063L108.719 24.0722L108.725 24.0812L109.56 23.5302ZM109.56 28.6702L108.721 28.1263L108.718 28.1302L109.56 28.6702ZM107.6 30.3102L108.013 31.221H108.013L107.6 30.3102ZM100.12 30.8902L99.3922 30.2042L97.8026 31.8902H100.12V30.8902ZM100.78 30.1902H101.78V27.6719L100.052 29.5042L100.78 30.1902ZM100.78 35.3102V36.3102H101.78V35.3102H100.78ZM100.78 30.3102L100.043 30.9859L101.78 32.881V30.3102H100.78ZM100.12 29.5902V28.5902H97.8466L99.3827 30.2659L100.12 29.5902ZM107.68 28.6902L108.32 29.4584L108.321 29.4573L107.68 28.6902ZM107.68 23.5102L107.031 24.2715L107.038 24.2773L107.68 23.5102ZM100.12 22.5902L99.3922 21.9042L97.8026 23.5902H100.12V22.5902ZM100.78 21.8902H101.78V19.3719L100.052 21.2042L100.78 21.8902ZM100.3 35.3102V21.3102H98.2998V35.3102H100.3ZM99.2998 22.3102H104.54V20.3102H99.2998V22.3102ZM104.54 22.3102C105.621 22.3102 106.493 22.4866 107.187 22.801L108.013 20.9793C107 20.5204 105.832 20.3102 104.54 20.3102V22.3102ZM107.199 22.8063C107.887 23.1073 108.377 23.5285 108.714 24.063L110.406 22.9974C109.836 22.0918 109.019 21.4197 108.001 20.974L107.199 22.8063ZM108.725 24.0812C109.064 24.5946 109.26 25.2537 109.26 26.1102H111.26C111.26 24.94 110.989 23.8791 110.394 22.9791L108.725 24.0812ZM109.26 26.1102C109.26 26.9335 109.067 27.5915 108.721 28.1263L110.399 29.2141C110.986 28.3089 111.26 27.2602 111.26 26.1102H109.26ZM108.718 28.1302C108.381 28.656 107.886 29.0828 107.187 29.3993L108.013 31.221C109.021 30.7643 109.832 30.0977 110.402 29.2101L108.718 28.1302ZM107.187 29.3993C106.493 29.7138 105.621 29.8902 104.54 29.8902V31.8902C105.832 31.8902 107 31.6799 108.013 31.221L107.187 29.3993ZM104.54 29.8902H100.12V31.8902H104.54V29.8902ZM100.847 31.5762L101.507 30.8762L100.052 29.5042L99.3922 30.2042L100.847 31.5762ZM99.7798 30.1902V35.3102H101.78V30.1902H99.7798ZM100.78 34.3102H99.2998V36.3102H100.78V34.3102ZM101.517 29.6345L100.857 28.9145L99.3827 30.2659L100.043 30.9859L101.517 29.6345ZM100.12 30.5902H104.5V28.5902H100.12V30.5902ZM104.5 30.5902C106.022 30.5902 107.35 30.2667 108.32 29.4584L107.04 27.922C106.57 28.3137 105.777 28.5902 104.5 28.5902V30.5902ZM108.321 29.4573C109.319 28.6229 109.78 27.461 109.78 26.1102H107.78C107.78 26.9727 107.507 27.5308 107.038 27.9231L108.321 29.4573ZM109.78 26.1102C109.78 24.7505 109.322 23.5799 108.321 22.7431L107.038 24.2773C107.504 24.6671 107.78 25.2299 107.78 26.1102H109.78ZM108.328 22.7489C107.358 21.9223 106.027 21.5902 104.5 21.5902V23.5902C105.773 23.5902 106.562 23.8714 107.031 24.2714L108.328 22.7489ZM104.5 21.5902H100.12V23.5902H104.5V21.5902ZM100.847 23.2762L101.507 22.5762L100.052 21.2042L99.3922 21.9042L100.847 23.2762ZM99.7798 21.8902V30.3102H101.78V21.8902H99.7798ZM114.46 35.3102H113.46V36.3102H114.46V35.3102ZM114.46 21.3102V20.3102H113.46V21.3102H114.46ZM115.94 21.3102H116.94V20.3102H115.94V21.3102ZM115.94 34.0302H114.94V35.0302H115.94V34.0302ZM123.78 34.0302H124.78V33.0302H123.78V34.0302ZM123.78 35.3102V36.3102H124.78V35.3102H123.78ZM115.46 35.3102V21.3102H113.46V35.3102H115.46ZM114.46 22.3102H115.94V20.3102H114.46V22.3102ZM114.94 21.3102V34.0302H116.94V21.3102H114.94ZM115.94 35.0302H123.78V33.0302H115.94V35.0302ZM122.78 34.0302V35.3102H124.78V34.0302H122.78ZM123.78 34.3102H114.46V36.3102H123.78V34.3102ZM130.144 34.9102L129.77 35.8377L129.778 35.841L129.787 35.8442L130.144 34.9102ZM127.804 33.4102L127.097 34.1173L127.104 34.1245L127.111 34.1316L127.804 33.4102ZM126.264 31.1502L125.34 31.5338L125.344 31.5424L125.348 31.551L126.264 31.1502ZM126.264 25.4902L125.345 25.0945L125.343 25.1015L126.264 25.4902ZM127.804 23.2302L128.504 23.9445L128.504 23.9444L127.804 23.2302ZM130.144 21.7302L130.506 22.6625L130.518 22.6577L130.144 21.7302ZM136.004 21.7302L135.63 22.6578L135.642 22.6624L136.004 21.7302ZM138.324 23.2102L137.624 23.9246L137.631 23.9316L138.324 23.2102ZM139.864 25.4702L138.94 25.8538L138.945 25.8658L139.864 25.4702ZM139.864 31.1502L138.945 30.7545L138.94 30.7666L139.864 31.1502ZM138.324 33.4102L137.631 32.6888L137.624 32.6958L138.324 33.4102ZM136.004 34.9102L136.366 35.8425L136.378 35.8377L136.004 34.9102ZM135.404 33.6902L135.772 34.6199L135.781 34.6163L135.404 33.6902ZM137.264 32.4702L136.557 31.7631L137.264 32.4702ZM138.504 30.6302L139.425 31.0198L139.427 31.0136L138.504 30.6302ZM138.504 26.0102L137.58 26.3936L137.583 26.3998L138.504 26.0102ZM137.264 24.1702L136.548 24.8683L136.557 24.8773L136.566 24.8862L137.264 24.1702ZM135.404 22.9502L135.021 23.8738L135.031 23.8781L135.041 23.8822L135.404 22.9502ZM130.744 22.9502L131.106 23.8822L131.114 23.8793L131.121 23.8763L130.744 22.9502ZM128.864 24.1702L128.157 23.4631V23.4631L128.864 24.1702ZM127.624 26.0102L126.707 25.6121L126.703 25.6205L127.624 26.0102ZM127.624 30.6102L126.7 30.9936L126.703 31.0009L126.707 31.0083L127.624 30.6102ZM128.864 32.4702L128.148 33.1683L128.157 33.1773L128.166 33.1862L128.864 32.4702ZM130.744 33.6902L130.367 34.6163L130.374 34.6193L130.381 34.6222L130.744 33.6902ZM133.084 34.4302C132.142 34.4302 131.284 34.2756 130.501 33.9761L129.787 35.8442C130.817 36.2381 131.919 36.4302 133.084 36.4302V34.4302ZM130.518 33.9827C129.738 33.6683 129.067 33.2366 128.496 32.6888L127.111 34.1316C127.874 34.8637 128.763 35.432 129.77 35.8377L130.518 33.9827ZM128.511 32.7031C127.947 32.1386 127.504 31.4894 127.18 30.7494L125.348 31.551C125.771 32.5176 126.355 33.3751 127.097 34.1173L128.511 32.7031ZM127.187 30.7666C126.882 30.0325 126.724 29.2176 126.724 28.3102H124.724C124.724 29.4561 124.925 30.5345 125.34 31.5338L127.187 30.7666ZM126.724 28.3102C126.724 27.4025 126.883 26.5965 127.185 25.8789L125.343 25.1015C124.925 26.0905 124.724 27.1645 124.724 28.3102H126.724ZM127.182 25.8858C127.506 25.1347 127.946 24.4906 128.504 23.9445L127.104 22.5158C126.355 23.2497 125.769 24.1123 125.345 25.0946L127.182 25.8858ZM128.504 23.9444C129.071 23.3885 129.735 22.9614 130.506 22.6624L129.782 20.7979C128.766 21.1923 127.87 21.7652 127.104 22.516L128.504 23.9444ZM130.518 22.6577C131.28 22.3505 132.132 22.1902 133.084 22.1902V20.1902C131.903 20.1902 130.794 20.3899 129.77 20.8027L130.518 22.6577ZM133.084 22.1902C134.021 22.1902 134.866 22.3499 135.63 22.6577L136.378 20.8027C135.355 20.3905 134.253 20.1902 133.084 20.1902V22.1902ZM135.642 22.6624C136.415 22.9625 137.072 23.3838 137.624 23.9245L139.024 22.4958C138.269 21.7565 137.379 21.1912 136.366 20.7979L135.642 22.6624ZM137.631 23.9316C138.197 24.4746 138.632 25.1124 138.94 25.8538L140.787 25.0866C140.375 24.0946 139.784 23.2258 139.016 22.4888L137.631 23.9316ZM138.945 25.8658C139.26 26.5969 139.424 27.4075 139.424 28.3102H141.424C141.424 27.1595 141.214 26.0768 140.782 25.0746L138.945 25.8658ZM139.424 28.3102C139.424 29.2129 139.26 30.0235 138.945 30.7546L140.782 31.5458C141.214 30.5436 141.424 29.4608 141.424 28.3102H139.424ZM138.94 30.7666C138.632 31.508 138.197 32.1458 137.631 32.6888L139.016 34.1316C139.784 33.3946 140.375 32.5257 140.787 31.5338L138.94 30.7666ZM137.624 32.6958C137.069 33.2393 136.408 33.669 135.63 33.9827L136.378 35.8377C137.386 35.4313 138.272 34.8611 139.024 34.1245L137.624 32.6958ZM135.642 33.9779C134.875 34.2756 134.026 34.4302 133.084 34.4302V36.4302C134.249 36.4302 135.346 36.2381 136.366 35.8424L135.642 33.9779ZM133.084 35.1102C134.037 35.1102 134.937 34.951 135.772 34.6199L135.036 32.7605C134.458 32.9894 133.811 33.1102 133.084 33.1102V35.1102ZM135.781 34.6163C136.617 34.2756 137.351 33.7969 137.971 33.1773L136.557 31.7631C136.136 32.1835 135.63 32.5181 135.027 32.7641L135.781 34.6163ZM137.971 33.1773C138.595 32.5531 139.081 31.832 139.425 31.0198L137.583 30.2405C137.34 30.815 136.999 31.3206 136.557 31.7631L137.971 33.1773ZM139.427 31.0136C139.776 30.174 139.944 29.2688 139.944 28.3102H137.944C137.944 29.0315 137.818 29.6731 137.58 30.2468L139.427 31.0136ZM139.944 28.3102C139.944 27.3518 139.776 26.4507 139.425 25.6205L137.583 26.3998C137.818 26.9563 137.944 27.5885 137.944 28.3102H139.944ZM139.427 25.6268C139.084 24.7986 138.595 24.0712 137.962 23.4542L136.566 24.8862C137 25.3091 137.337 25.8084 137.58 26.3936L139.427 25.6268ZM137.98 23.4721C137.356 22.8326 136.614 22.348 135.766 22.0182L135.041 23.8822C135.633 24.1124 136.131 24.4411 136.548 24.8683L137.98 23.4721ZM135.787 22.0266C134.948 21.6781 134.043 21.5102 133.084 21.5102V23.5102C133.805 23.5102 134.447 23.6356 135.021 23.8738L135.787 22.0266ZM133.084 21.5102C132.125 21.5102 131.216 21.6781 130.367 22.0241L131.121 23.8763C131.712 23.6356 132.363 23.5102 133.084 23.5102V21.5102ZM130.381 22.0182C129.535 22.3472 128.791 22.8293 128.157 23.4631L129.571 24.8773C130.004 24.4444 130.512 24.1132 131.106 23.8822L130.381 22.0182ZM128.157 23.4631C127.544 24.0761 127.061 24.7957 126.707 25.6121L128.541 26.4083C128.8 25.8113 129.144 25.3042 129.571 24.8773L128.157 23.4631ZM126.703 25.6205C126.352 26.4507 126.184 27.3518 126.184 28.3102H128.184C128.184 27.5885 128.309 26.9563 128.545 26.3998L126.703 25.6205ZM126.184 28.3102C126.184 29.2577 126.353 30.1559 126.7 30.9936L128.547 30.2268C128.309 29.6511 128.184 29.0159 128.184 28.3102H126.184ZM126.707 31.0083C127.06 31.8225 127.54 32.545 128.148 33.1683L129.58 31.7721C129.148 31.3287 128.801 30.8112 128.541 30.2121L126.707 31.0083ZM128.166 33.1862C128.796 33.8002 129.532 34.2764 130.367 34.6163L131.121 32.7641C130.515 32.5173 129.999 32.1802 129.562 31.7542L128.166 33.1862ZM130.381 34.6222C131.227 34.9509 132.131 35.1102 133.084 35.1102V33.1102C132.357 33.1102 131.701 32.9895 131.106 32.7582L130.381 34.6222ZM144.741 35.3102H143.741V36.3102H144.741V35.3102ZM144.741 21.3102V20.3102H143.741V21.3102H144.741ZM153.041 21.8902L152.628 22.8011L152.64 22.8063L153.041 21.8902ZM155.001 23.5302L154.155 24.063L154.161 24.0722L154.167 24.0812L155.001 23.5302ZM155.001 28.6702L154.162 28.1263L154.16 28.1302L155.001 28.6702ZM153.041 30.3102L153.442 31.2264L153.454 31.221L153.041 30.3102ZM145.561 30.8702L144.844 30.1737L143.197 31.8702H145.561V30.8702ZM146.221 30.1902H147.221V27.7241L145.504 29.4937L146.221 30.1902ZM146.221 35.3102V36.3102H147.221V35.3102H146.221ZM154.301 35.3102L153.485 35.8884L153.784 36.3102H154.301V35.3102ZM150.701 30.2302V29.2302H148.767L149.885 30.8084L150.701 30.2302ZM152.301 30.2302L153.116 29.6499L152.817 29.2302H152.301V30.2302ZM155.921 35.3102V36.3102H157.862L156.736 34.7299L155.921 35.3102ZM146.221 30.3102L145.494 30.9962L147.221 32.8285V30.3102H146.221ZM145.561 29.6102V28.6102H143.244L144.834 30.2962L145.561 29.6102ZM153.121 28.6902L152.48 27.9231L152.473 27.9289L153.121 28.6902ZM153.121 23.5102L152.473 24.2715L152.48 24.2773L153.121 23.5102ZM145.561 22.5902L144.834 21.9042L143.244 23.5902H145.561V22.5902ZM146.221 21.8902H147.221V19.3719L145.494 21.2042L146.221 21.8902ZM145.741 35.3102V21.3102H143.741V35.3102H145.741ZM144.741 22.3102H149.981V20.3102H144.741V22.3102ZM149.981 22.3102C151.062 22.3102 151.935 22.4866 152.629 22.801L153.454 20.9793C152.441 20.5204 151.274 20.3102 149.981 20.3102V22.3102ZM152.64 22.8063C153.328 23.1073 153.819 23.5285 154.155 24.063L155.847 22.9974C155.277 22.0918 154.461 21.4197 153.442 20.974L152.64 22.8063ZM154.167 24.0812C154.506 24.5946 154.701 25.2537 154.701 26.1102H156.701C156.701 24.94 156.43 23.8791 155.836 22.9791L154.167 24.0812ZM154.701 26.1102C154.701 26.9335 154.509 27.5915 154.162 28.1263L155.84 29.2141C156.427 28.3089 156.701 27.2602 156.701 26.1102H154.701ZM154.16 28.1302C153.822 28.656 153.327 29.0828 152.629 29.3993L153.454 31.221C154.462 30.7643 155.274 30.0977 155.843 29.2101L154.16 28.1302ZM152.64 29.394C151.943 29.6991 151.066 29.8702 149.981 29.8702V31.8702C151.269 31.8702 152.433 31.6679 153.442 31.2263L152.64 29.394ZM149.981 29.8702H145.561V31.8702H149.981V29.8702ZM146.279 31.5667L146.939 30.8867L145.504 29.4937L144.844 30.1737L146.279 31.5667ZM145.221 30.1902V35.3102H147.221V30.1902H145.221ZM146.221 34.3102H144.741V36.3102H146.221V34.3102ZM155.117 34.732L151.517 29.652L149.885 30.8084L153.485 35.8884L155.117 34.732ZM150.701 31.2302H152.301V29.2302H150.701V31.2302ZM151.487 30.8105L155.107 35.8905L156.736 34.7299L153.116 29.6499L151.487 30.8105ZM155.921 34.3102H154.301V36.3102H155.921V34.3102ZM146.949 29.6242L146.289 28.9242L144.834 30.2962L145.494 30.9962L146.949 29.6242ZM145.561 30.6102H149.941V28.6102H145.561V30.6102ZM149.941 30.6102C151.468 30.6102 152.799 30.2781 153.77 29.4514L152.473 27.9289C152.003 28.329 151.214 28.6102 149.941 28.6102V30.6102ZM153.763 29.4573C154.76 28.6229 155.221 27.461 155.221 26.1102H153.221C153.221 26.9727 152.949 27.5308 152.48 27.9231L153.763 29.4573ZM155.221 26.1102C155.221 24.7505 154.763 23.5799 153.763 22.7431L152.48 24.2773C152.946 24.6671 153.221 25.2299 153.221 26.1102H155.221ZM153.77 22.7489C152.799 21.9223 151.468 21.5902 149.941 21.5902V23.5902C151.214 23.5902 152.003 23.8714 152.473 24.2714L153.77 22.7489ZM149.941 21.5902H145.561V23.5902H149.941V21.5902ZM146.289 23.2762L146.949 22.5762L145.494 21.2042L144.834 21.9042L146.289 23.2762ZM145.221 21.8902V30.3102H147.221V21.8902H145.221ZM161.514 27.5702V26.5702H160.514V27.5702H161.514ZM168.914 27.5702H169.914V26.5702H168.914V27.5702ZM168.914 28.8302V29.8302H169.914V28.8302H168.914ZM161.514 28.8302H160.514V29.8302H161.514V28.8302ZM161.674 34.0302H160.674V35.0302H161.674V34.0302ZM170.094 34.0302H171.094V33.0302H170.094V34.0302ZM170.094 35.3102V36.3102H171.094V35.3102H170.094ZM160.194 35.3102H159.194V36.3102H160.194V35.3102ZM160.194 21.3102V20.3102H159.194V21.3102H160.194ZM169.794 21.3102H170.794V20.3102H169.794V21.3102ZM169.794 22.5902V23.5902H170.794V22.5902H169.794ZM161.674 22.5902V21.5902H160.674V22.5902H161.674ZM161.514 28.5702H168.914V26.5702H161.514V28.5702ZM167.914 27.5702V28.8302H169.914V27.5702H167.914ZM168.914 27.8302H161.514V29.8302H168.914V27.8302ZM162.514 28.8302V27.5702H160.514V28.8302H162.514ZM161.674 35.0302H170.094V33.0302H161.674V35.0302ZM169.094 34.0302V35.3102H171.094V34.0302H169.094ZM170.094 34.3102H160.194V36.3102H170.094V34.3102ZM161.194 35.3102V21.3102H159.194V35.3102H161.194ZM160.194 22.3102H169.794V20.3102H160.194V22.3102ZM168.794 21.3102V22.5902H170.794V21.3102H168.794ZM169.794 21.5902H161.674V23.5902H169.794V21.5902ZM160.674 22.5902V34.0302H162.674V22.5902H160.674Z" fill="white" mask="url(#path-2-outside-1_1_383)"/>
</svg>
