<svg width="118" height="35" viewBox="0 0 118 35" fill="none" xmlns="http://www.w3.org/2000/svg">
<path d="M28.563 31.7548C28.941 31.7548 28.941 31.7638 28.941 32.0158V33.3118C28.941 34.1488 28.896 34.2388 28.482 34.2928L28.284 34.3198C28.212 34.3738 28.212 34.5808 28.284 34.6348C28.716 34.6168 29.157 34.6078 29.607 34.6078C30.021 34.6078 30.462 34.6168 30.912 34.6348C30.984 34.5808 30.984 34.3738 30.912 34.3198L30.696 34.2838C30.282 34.2118 30.228 34.1488 30.228 33.3118V29.9638C30.228 29.1268 30.282 29.0458 30.696 28.9828L30.876 28.9558C30.948 28.9018 30.948 28.6948 30.876 28.6408C30.462 28.6588 30.048 28.6678 29.607 28.6678C29.175 28.6678 28.734 28.6588 28.239 28.6408C28.167 28.6948 28.167 28.9018 28.239 28.9558L28.482 28.9918C28.896 29.0548 28.941 29.1268 28.941 29.9638V31.0078C28.941 31.2688 28.941 31.2778 28.563 31.2778H26.691C26.322 31.2778 26.313 31.2688 26.313 31.0078V29.9638C26.313 29.1268 26.367 29.0368 26.754 28.9828L26.943 28.9558C27.015 28.9018 27.015 28.6948 26.943 28.6408C26.547 28.6588 26.097 28.6678 25.692 28.6678C25.26 28.6678 24.792 28.6588 24.351 28.6408C24.279 28.6948 24.279 28.9018 24.351 28.9558L24.567 28.9828C24.981 29.0368 25.026 29.1268 25.026 29.9638V33.3118C25.026 34.1488 24.981 34.2388 24.567 34.2928L24.351 34.3198C24.279 34.3738 24.279 34.5808 24.351 34.6348C24.81 34.6168 25.26 34.6078 25.692 34.6078C26.097 34.6078 26.547 34.6168 27.06 34.6348C27.132 34.5808 27.132 34.3738 27.06 34.3198L26.772 34.2838C26.367 34.2298 26.313 34.1488 26.313 33.3118V32.0158C26.313 31.7638 26.322 31.7548 26.691 31.7548H28.563ZM40.224 28.5238C38.343 28.5238 37.011 29.9008 37.011 31.6828C37.011 33.5638 38.325 34.7518 40.134 34.7518C42.069 34.7518 43.383 33.5728 43.383 31.6108C43.383 29.7838 42.096 28.5238 40.224 28.5238ZM41.943 31.7278C41.943 33.1858 41.484 34.3378 40.305 34.3378C38.838 34.3378 38.451 32.5738 38.451 31.4758C38.451 29.9728 39.045 28.9378 40.152 28.9378C41.268 28.9378 41.943 30.1888 41.943 31.7278ZM51.1663 33.3118C51.1663 34.1488 51.1123 34.2298 50.7073 34.2748L50.3023 34.3198C50.2303 34.3738 50.2303 34.5808 50.3023 34.6348C50.9323 34.6168 51.4003 34.6078 51.8323 34.6078C52.2373 34.6078 52.6873 34.6168 53.2723 34.6348C53.3353 34.5808 53.3353 34.3738 53.2723 34.3198L52.9123 34.2748C52.5073 34.2208 52.4533 34.1488 52.4533 33.3118V29.3428C52.4533 29.1088 52.4803 29.0818 52.6963 29.0818H53.2363C53.9113 29.0818 54.0373 29.5048 54.1903 30.0808C54.2353 30.1528 54.4783 30.1348 54.5233 30.0538C54.5053 29.5408 54.5683 28.8118 54.6583 28.5058C54.6403 28.4788 54.5773 28.4428 54.5233 28.4428C54.4693 28.4428 54.4423 28.4518 54.4063 28.4698C54.3253 28.6588 54.1903 28.6678 53.5963 28.6678H50.2483C49.5643 28.6678 49.5373 28.6318 49.4923 28.4788C49.4563 28.4518 49.4113 28.4428 49.3663 28.4428C49.3213 28.4428 49.2763 28.4608 49.2403 28.4878C49.1773 28.8388 49.1323 29.3968 48.9433 30.0178C48.9973 30.1348 49.1683 30.1528 49.2763 30.0988C49.5463 29.4418 49.7353 29.0818 50.3923 29.0818H50.9503C51.1663 29.0818 51.1663 29.1268 51.1663 29.3428V33.3118ZM62.3851 29.4328C62.3851 29.0998 62.3851 29.0818 62.6821 29.0818H63.4021C63.8431 29.0818 64.1131 29.1898 64.2841 29.3608C64.4011 29.4868 64.5271 29.7568 64.6261 30.0718C64.7161 30.1528 64.9231 30.1348 64.9591 30.0358C64.9141 29.4328 64.8511 28.7848 64.8421 28.6408C64.7251 28.6588 64.2121 28.6678 63.6361 28.6678H61.7281C61.2961 28.6678 60.8551 28.6588 60.4321 28.6408C60.3421 28.6948 60.3331 28.9018 60.4141 28.9558L60.6391 29.0008C61.0441 29.0818 61.0981 29.1358 61.0981 29.9548V33.3118C61.0981 34.1398 61.0441 34.1938 60.6391 34.2568L60.2161 34.3198C60.1441 34.3648 60.1441 34.5808 60.2161 34.6348C60.8911 34.6168 61.3321 34.6078 61.7641 34.6078H62.9341C63.6721 34.6078 64.5361 34.6168 65.0131 34.6348C65.1391 34.3918 65.3551 33.6628 65.3911 33.1948C65.3551 33.0868 65.1301 33.0508 65.0581 33.1498C64.5631 34.1668 64.2571 34.1938 63.4741 34.1938C62.8171 34.1938 62.6461 34.1218 62.5291 33.9598C62.4211 33.8068 62.3851 33.5188 62.3851 33.1048V32.0338C62.3851 31.7638 62.3941 31.7548 62.6371 31.7548H63.2581C63.7261 31.7548 63.8341 31.8268 63.9241 32.2588L63.9691 32.4838C64.0321 32.5648 64.2571 32.5558 64.3021 32.4748C64.2841 32.1868 64.2751 31.8628 64.2751 31.5208C64.2751 31.1788 64.2841 30.8548 64.3021 30.5668C64.2571 30.4858 64.0321 30.4858 63.9691 30.5578L63.9241 30.7828C63.8341 31.2148 63.7261 31.2778 63.2581 31.2778H62.6371C62.3941 31.2778 62.3851 31.2598 62.3851 31.0078V29.4328ZM73.12 29.9638C73.12 29.1268 73.174 29.0548 73.579 28.9918L73.813 28.9558C73.885 28.9018 73.885 28.6948 73.813 28.6408C73.363 28.6588 72.913 28.6678 72.481 28.6678C72.049 28.6678 71.599 28.6588 71.131 28.6408C71.023 28.6948 71.023 28.9018 71.113 28.9558L71.374 28.9918C71.779 29.0458 71.833 29.1268 71.833 29.9638V33.3118C71.833 34.1488 71.779 34.2208 71.374 34.2748L71.032 34.3198C70.96 34.3738 70.978 34.5808 71.059 34.6348C71.617 34.6168 72.067 34.6078 72.481 34.6078H73.687C74.425 34.6078 75.289 34.6168 75.766 34.6348C75.892 34.3918 76.108 33.6448 76.153 33.1768C76.09 33.0688 75.883 33.0328 75.811 33.1228C75.28 34.1668 75.028 34.1938 74.209 34.1938C73.552 34.1938 73.39 34.1218 73.273 33.9688C73.156 33.8248 73.12 33.5368 73.12 33.1138V29.9638ZM85.7647 32.9248C85.7647 31.9348 85.0537 31.4128 84.4957 31.1158L83.9017 30.8008C83.4517 30.5668 83.0827 30.1888 83.0827 29.7748C83.0827 29.3248 83.4067 28.9378 84.0007 28.9378C84.6487 28.9378 85.0357 29.5948 85.1887 30.0538C85.2697 30.1438 85.4947 30.1348 85.5397 30.0268C85.5397 29.4238 85.4497 28.9378 85.3777 28.7398C85.2697 28.7218 85.1887 28.7038 85.0717 28.6678C84.7117 28.5598 84.3427 28.5238 84.0457 28.5238C82.7407 28.5238 81.9487 29.2258 81.9577 30.2428C81.9577 31.1338 82.6687 31.6738 83.3167 31.9978C83.8567 32.2678 84.5407 32.6998 84.5407 33.4288C84.5407 33.8788 84.2347 34.3378 83.5687 34.3378C82.8037 34.3378 82.2007 33.5098 82.0207 32.9248C81.9487 32.8258 81.7417 32.8348 81.6787 32.9518C81.6787 33.5638 81.7957 34.2118 81.9667 34.4098C82.1557 34.5178 82.6687 34.7518 83.4967 34.7518C84.8557 34.7518 85.7647 34.0318 85.7647 32.9248Z" fill="white"/>
<path d="M6.425 8.80581C6.425 6.48081 6.575 6.28081 7.7 6.10581L8.35 6.00581C8.55 5.85581 8.55 5.28081 8.35 5.13081C7.1 5.18081 5.85 5.20581 4.65 5.20581C3.45 5.20581 2.2 5.18081 0.9 5.13081C0.6 5.28081 0.6 5.85581 0.85 6.00581L1.575 6.10581C2.7 6.25581 2.85 6.48081 2.85 8.80581V18.1058C2.85 20.4308 2.7 20.6308 1.575 20.7808L0.625 20.9058C0.425 21.0558 0.475 21.6308 0.7 21.7808C2.25 21.7308 3.5 21.7058 4.65 21.7058H8C10.05 21.7058 12.45 21.7308 13.775 21.7808C14.125 21.1058 14.725 19.0308 14.85 17.7308C14.675 17.4308 14.1 17.3308 13.9 17.5808C12.425 20.4808 11.725 20.5558 9.45 20.5558C7.625 20.5558 7.175 20.3558 6.85 19.9308C6.525 19.5308 6.425 18.7308 6.425 17.5558V8.80581ZM20.1957 15.0558C20.1957 17.7808 20.7457 19.6308 22.0457 20.7058C23.3957 21.8058 25.0957 22.1058 26.9957 22.1058C29.0207 22.1058 30.8457 21.4808 31.9457 20.3058C33.3207 18.7808 33.5457 16.6308 33.5457 14.2808V11.4808C33.5457 9.45581 33.6457 7.55581 33.9207 6.90581C34.1457 6.38081 34.6207 6.23081 35.2707 6.08081L35.7207 5.98081C35.9207 5.78081 35.8707 5.28081 35.7207 5.13081C34.7707 5.18081 33.8457 5.20581 32.9207 5.20581C31.8957 5.20581 30.9207 5.18081 29.5707 5.13081C29.4207 5.28081 29.3707 5.78081 29.5707 5.98081L30.2457 6.10581C30.9207 6.23081 31.4707 6.38081 31.6957 6.90581C31.9707 7.55581 32.0707 9.45581 32.0707 11.4808V14.5058C32.0707 17.9308 31.0957 20.7308 27.8957 20.7308C24.0957 20.7308 23.7707 17.5058 23.7707 14.5808V8.80581C23.7707 6.48081 23.9207 6.28081 25.0457 6.08081L25.6457 5.98081C25.8457 5.83081 25.8457 5.28081 25.6457 5.13081C24.4457 5.18081 23.2207 5.20581 21.9957 5.20581C20.7957 5.20581 19.5457 5.18081 18.3457 5.13081C18.0707 5.28081 18.0957 5.83081 18.2957 5.98081L18.9207 6.10581C20.0457 6.33081 20.1957 6.48081 20.1957 8.80581V15.0558ZM39.4266 20.9558C39.2016 21.1058 39.2766 21.6558 39.5266 21.7808C40.2766 21.7308 41.3266 21.7058 42.1516 21.7058C43.2016 21.7058 44.3266 21.7308 45.4266 21.7808C45.7016 21.6808 45.7266 21.0808 45.5016 20.9058L44.8516 20.8308C44.3266 20.7808 44.0516 20.6558 44.0516 20.5058C44.0516 20.3558 44.1016 20.1808 44.2766 19.8308C45.1016 18.2558 46.2766 16.3558 47.2516 14.9308C47.6266 15.4058 49.5266 18.3308 49.9016 19.0058C50.5266 20.0558 50.6266 20.2808 50.6266 20.4808C50.6266 20.6308 50.3266 20.7558 49.7016 20.8308L49.0266 20.9058C48.7766 21.0308 48.8766 21.6808 49.1016 21.7808C50.4516 21.7308 51.5766 21.7058 53.3016 21.7058C55.3266 21.7058 56.1016 21.7308 57.2016 21.7808C57.4516 21.6058 57.4516 21.0808 57.2766 20.9058L56.5016 20.8058C55.5516 20.6808 54.9266 20.3308 54.0516 19.0058C53.1516 17.6558 51.9266 15.7808 50.0516 12.8808C49.8016 12.5058 49.7016 12.2308 49.7016 12.1058C49.7016 11.9808 49.9516 11.6058 50.2016 11.2558C51.3766 9.65581 52.4766 8.00581 53.6766 6.78081C54.1266 6.33081 54.5766 6.23081 55.1016 6.15581L56.1516 6.00581C56.3266 5.78081 56.3016 5.25581 56.0516 5.13081C55.2516 5.18081 54.2266 5.20581 53.0266 5.20581C51.8516 5.20581 51.0516 5.18081 50.2766 5.13081C50.0016 5.25581 50.0016 5.83081 50.2016 6.00581L51.2016 6.18081C51.5266 6.23081 51.7016 6.35581 51.7016 6.43081C51.7016 6.55581 51.7016 6.73081 51.4266 7.18081C50.6516 8.50581 49.8266 9.73081 48.9016 11.1308C48.1266 10.0058 47.2266 8.63081 46.5516 7.45581C46.2516 6.93081 46.1516 6.70581 46.1516 6.48081C46.1516 6.30581 46.6016 6.18081 47.0016 6.10581L47.5516 6.00581C47.7266 5.80581 47.7266 5.25581 47.4516 5.13081C46.6766 5.18081 45.6766 5.20581 43.6516 5.20581C42.1266 5.20581 40.5516 5.18081 39.7516 5.13081C39.5016 5.28081 39.5016 5.80581 39.7266 6.00581L40.1516 6.08081C41.2766 6.28081 41.8016 6.60581 42.3766 7.43081C43.5516 9.10581 45.1266 11.5808 45.9516 12.8058C46.2766 13.2558 46.4016 13.5808 46.4016 13.6808C46.4016 13.8308 46.2766 14.1308 46.0516 14.4558C44.9766 16.0558 43.6266 18.0058 42.9016 18.9558C42.0766 20.0808 41.5016 20.6808 40.0016 20.8808L39.4266 20.9558ZM62.8275 15.0558C62.8275 17.7808 63.3775 19.6308 64.6775 20.7058C66.0275 21.8058 67.7275 22.1058 69.6275 22.1058C71.6525 22.1058 73.4775 21.4808 74.5775 20.3058C75.9525 18.7808 76.1775 16.6308 76.1775 14.2808V11.4808C76.1775 9.45581 76.2775 7.55581 76.5525 6.90581C76.7775 6.38081 77.2525 6.23081 77.9025 6.08081L78.3525 5.98081C78.5525 5.78081 78.5025 5.28081 78.3525 5.13081C77.4025 5.18081 76.4775 5.20581 75.5525 5.20581C74.5275 5.20581 73.5525 5.18081 72.2025 5.13081C72.0525 5.28081 72.0025 5.78081 72.2025 5.98081L72.8775 6.10581C73.5525 6.23081 74.1025 6.38081 74.3275 6.90581C74.6025 7.55581 74.7025 9.45581 74.7025 11.4808V14.5058C74.7025 17.9308 73.7275 20.7308 70.5275 20.7308C66.7275 20.7308 66.4025 17.5058 66.4025 14.5808V8.80581C66.4025 6.48081 66.5525 6.28081 67.6775 6.08081L68.2775 5.98081C68.4775 5.83081 68.4775 5.28081 68.2775 5.13081C67.0775 5.18081 65.8525 5.20581 64.6275 5.20581C63.4275 5.20581 62.1775 5.18081 60.9775 5.13081C60.7025 5.28081 60.7275 5.83081 60.9275 5.98081L61.5525 6.10581C62.6775 6.33081 62.8275 6.48081 62.8275 8.80581V15.0558ZM85.2084 18.1058C85.2084 20.4058 85.0584 20.5808 83.9334 20.7808L83.2584 20.9058C83.0584 21.0308 83.0584 21.6308 83.2584 21.7808C84.5584 21.7308 85.6584 21.7058 86.9084 21.7058C88.1084 21.7058 89.2584 21.7308 90.5834 21.7808C90.7584 21.6308 90.7584 21.0308 90.5834 20.9058L89.9084 20.7808C88.7834 20.5808 88.6334 20.4058 88.6334 18.1058V15.0308C88.6334 14.5308 88.6834 14.4808 89.5584 14.4808C90.1834 14.4808 90.5834 14.6808 90.8834 15.3558C91.4584 16.6808 92.0334 17.9058 92.8334 19.2308C93.9334 21.0308 95.3834 21.8558 97.6834 21.8558C98.4584 21.8558 99.2584 21.8058 99.6584 21.6308C99.7834 21.4808 99.7834 21.1058 99.5584 20.9808C99.1834 20.9558 98.5334 20.8058 97.8834 20.2808C96.6834 19.2558 95.6584 17.3808 94.0084 14.0308C93.8834 13.7558 93.8834 13.6058 94.1334 13.4808C95.2834 12.9058 96.7834 11.9558 96.7834 9.73081C96.7834 8.13081 96.0334 6.88081 94.5834 6.03081C93.6334 5.45581 91.8084 5.13081 89.6834 5.13081C87.3084 5.13081 85.3584 5.23081 83.4834 5.35581C83.1834 5.48081 83.1834 6.10581 83.4334 6.23081L84.1084 6.33081C85.1584 6.48081 85.2084 6.75581 85.2084 9.25581V18.1058ZM88.6334 7.55581C88.6334 6.35581 88.6834 6.28081 89.7084 6.28081C91.6584 6.28081 92.9834 7.73081 92.9834 9.98081C92.9834 11.4558 92.5084 12.2558 92.0834 12.6808C91.6084 13.1558 91.0834 13.3808 90.1834 13.3808C88.7084 13.3808 88.6334 13.3058 88.6334 12.4308V7.55581ZM110.933 16.3558C110.933 14.9308 111.108 14.3058 111.758 13.1308L113.333 10.2808C114.533 8.10581 115.133 7.20581 115.508 6.73081C115.783 6.38081 116.358 6.20581 116.808 6.13081L117.458 6.00581C117.658 5.83081 117.658 5.23081 117.358 5.13081C116.633 5.18081 115.858 5.20581 114.908 5.20581C114.008 5.20581 113.108 5.18081 112.108 5.13081C111.858 5.25581 111.883 5.88081 112.083 6.00581L112.558 6.10581C113.158 6.20581 113.558 6.35581 113.558 6.50581C113.558 6.80581 113.258 7.55581 112.358 9.33081C111.708 10.6058 110.933 12.2308 110.208 13.4558C109.908 12.8308 109.333 11.6808 108.958 10.8558L107.783 8.18081C107.258 7.00581 107.133 6.63081 107.133 6.43081C107.133 6.40581 107.283 6.30581 107.733 6.20581L108.583 6.00581C108.808 5.80581 108.758 5.23081 108.533 5.13081C107.683 5.18081 106.408 5.20581 104.883 5.20581C103.408 5.20581 102.483 5.18081 101.358 5.13081C101.058 5.20581 101.033 5.80581 101.258 6.00581L102.108 6.15581C102.983 6.30581 103.208 6.70581 103.708 7.73081L106.683 13.8808C107.333 15.2058 107.358 15.6058 107.358 16.8558V18.1058C107.358 20.4308 107.208 20.6058 106.083 20.7808L105.233 20.9058C105.033 21.0558 105.033 21.6308 105.233 21.7808C106.708 21.7308 107.958 21.7058 109.158 21.7058C110.358 21.7058 111.583 21.7308 113.208 21.7808C113.383 21.6308 113.383 21.0558 113.208 20.9058L112.208 20.7808C111.083 20.6308 110.933 20.4308 110.933 18.1058V16.3558Z" fill="white"/>
</svg>
