<svg width="236" height="55" viewBox="0 0 236 55" fill="none" xmlns="http://www.w3.org/2000/svg">
<path d="M226 0.0422211H10C4.47715 0.0422211 0 3.90779 0 8.6762V45.8023C0 50.5707 4.47715 54.4363 10 54.4363H226C231.523 54.4363 236 50.5707 236 45.8023V8.6762C236 3.90779 231.523 0.0422211 226 0.0422211Z" fill="#E0B973"/>
<mask id="path-2-outside-1_1_373" maskUnits="userSpaceOnUse" x="70.18" y="18.5834" width="101" height="18" fill="black">
<rect fill="white" x="70.18" y="18.5834" width="101" height="18"/>
<path d="M72.78 26.8434H80.18V28.1034H72.78V26.8434ZM72.94 33.3034H81.36V34.5834H71.46V20.5834H81.06V21.8634H72.94V33.3034ZM83.7231 34.5834L89.4631 26.8234V27.9634L84.0631 20.5834H85.7631L90.3031 26.7434L89.6431 26.7634L94.1831 20.5834H95.7831L90.4431 27.8634V26.8234L96.1631 34.5834H94.4431L89.6031 28.0034H90.2231L85.4231 34.5834H83.7231ZM99.2998 34.5834V20.5834H104.54C105.727 20.5834 106.747 20.7767 107.6 21.1634C108.453 21.5367 109.107 22.0834 109.56 22.8034C110.027 23.5101 110.26 24.3701 110.26 25.3834C110.26 26.3701 110.027 27.2234 109.56 27.9434C109.107 28.6501 108.453 29.1967 107.6 29.5834C106.747 29.9701 105.727 30.1634 104.54 30.1634H100.12L100.78 29.4634V34.5834H99.2998ZM100.78 29.5834L100.12 28.8634H104.5C105.9 28.8634 106.96 28.5634 107.68 27.9634C108.413 27.3501 108.78 26.4901 108.78 25.3834C108.78 24.2634 108.413 23.3967 107.68 22.7834C106.96 22.1701 105.9 21.8634 104.5 21.8634H100.12L100.78 21.1634V29.5834ZM114.46 34.5834V20.5834H115.94V33.3034H123.78V34.5834H114.46ZM133.084 34.7034C132.031 34.7034 131.051 34.5301 130.144 34.1834C129.251 33.8234 128.471 33.3234 127.804 32.6834C127.151 32.0301 126.637 31.2767 126.264 30.4234C125.904 29.5567 125.724 28.6101 125.724 27.5834C125.724 26.5567 125.904 25.6167 126.264 24.7634C126.637 23.8967 127.151 23.1434 127.804 22.5034C128.471 21.8501 129.251 21.3501 130.144 21.0034C131.037 20.6434 132.017 20.4634 133.084 20.4634C134.137 20.4634 135.111 20.6434 136.004 21.0034C136.897 21.3501 137.671 21.8434 138.324 22.4834C138.991 23.1234 139.504 23.8767 139.864 24.7434C140.237 25.6101 140.424 26.5567 140.424 27.5834C140.424 28.6101 140.237 29.5567 139.864 30.4234C139.504 31.2901 138.991 32.0434 138.324 32.6834C137.671 33.3234 136.897 33.8234 136.004 34.1834C135.111 34.5301 134.137 34.7034 133.084 34.7034ZM133.084 33.3834C133.924 33.3834 134.697 33.2434 135.404 32.9634C136.124 32.6701 136.744 32.2634 137.264 31.7434C137.797 31.2101 138.211 30.5967 138.504 29.9034C138.797 29.1967 138.944 28.4234 138.944 27.5834C138.944 26.7434 138.797 25.9767 138.504 25.2834C138.211 24.5767 137.797 23.9634 137.264 23.4434C136.744 22.9101 136.124 22.5034 135.404 22.2234C134.697 21.9301 133.924 21.7834 133.084 21.7834C132.244 21.7834 131.464 21.9301 130.744 22.2234C130.024 22.5034 129.397 22.9101 128.864 23.4434C128.344 23.9634 127.931 24.5767 127.624 25.2834C127.331 25.9767 127.184 26.7434 127.184 27.5834C127.184 28.4101 127.331 29.1767 127.624 29.8834C127.931 30.5901 128.344 31.2101 128.864 31.7434C129.397 32.2634 130.024 32.6701 130.744 32.9634C131.464 33.2434 132.244 33.3834 133.084 33.3834ZM144.741 34.5834V20.5834H149.981C151.168 20.5834 152.188 20.7767 153.041 21.1634C153.895 21.5367 154.548 22.0834 155.001 22.8034C155.468 23.5101 155.701 24.3701 155.701 25.3834C155.701 26.3701 155.468 27.2234 155.001 27.9434C154.548 28.6501 153.895 29.1967 153.041 29.5834C152.188 29.9567 151.168 30.1434 149.981 30.1434H145.561L146.221 29.4634V34.5834H144.741ZM154.301 34.5834L150.701 29.5034H152.301L155.921 34.5834H154.301ZM146.221 29.5834L145.561 28.8834H149.941C151.341 28.8834 152.401 28.5767 153.121 27.9634C153.855 27.3501 154.221 26.4901 154.221 25.3834C154.221 24.2634 153.855 23.3967 153.121 22.7834C152.401 22.1701 151.341 21.8634 149.941 21.8634H145.561L146.221 21.1634V29.5834ZM161.514 26.8434H168.914V28.1034H161.514V26.8434ZM161.674 33.3034H170.094V34.5834H160.194V20.5834H169.794V21.8634H161.674V33.3034Z"/>
</mask>
<path d="M72.78 26.8434H80.18V28.1034H72.78V26.8434ZM72.94 33.3034H81.36V34.5834H71.46V20.5834H81.06V21.8634H72.94V33.3034ZM83.7231 34.5834L89.4631 26.8234V27.9634L84.0631 20.5834H85.7631L90.3031 26.7434L89.6431 26.7634L94.1831 20.5834H95.7831L90.4431 27.8634V26.8234L96.1631 34.5834H94.4431L89.6031 28.0034H90.2231L85.4231 34.5834H83.7231ZM99.2998 34.5834V20.5834H104.54C105.727 20.5834 106.747 20.7767 107.6 21.1634C108.453 21.5367 109.107 22.0834 109.56 22.8034C110.027 23.5101 110.26 24.3701 110.26 25.3834C110.26 26.3701 110.027 27.2234 109.56 27.9434C109.107 28.6501 108.453 29.1967 107.6 29.5834C106.747 29.9701 105.727 30.1634 104.54 30.1634H100.12L100.78 29.4634V34.5834H99.2998ZM100.78 29.5834L100.12 28.8634H104.5C105.9 28.8634 106.96 28.5634 107.68 27.9634C108.413 27.3501 108.78 26.4901 108.78 25.3834C108.78 24.2634 108.413 23.3967 107.68 22.7834C106.96 22.1701 105.9 21.8634 104.5 21.8634H100.12L100.78 21.1634V29.5834ZM114.46 34.5834V20.5834H115.94V33.3034H123.78V34.5834H114.46ZM133.084 34.7034C132.031 34.7034 131.051 34.5301 130.144 34.1834C129.251 33.8234 128.471 33.3234 127.804 32.6834C127.151 32.0301 126.637 31.2767 126.264 30.4234C125.904 29.5567 125.724 28.6101 125.724 27.5834C125.724 26.5567 125.904 25.6167 126.264 24.7634C126.637 23.8967 127.151 23.1434 127.804 22.5034C128.471 21.8501 129.251 21.3501 130.144 21.0034C131.037 20.6434 132.017 20.4634 133.084 20.4634C134.137 20.4634 135.111 20.6434 136.004 21.0034C136.897 21.3501 137.671 21.8434 138.324 22.4834C138.991 23.1234 139.504 23.8767 139.864 24.7434C140.237 25.6101 140.424 26.5567 140.424 27.5834C140.424 28.6101 140.237 29.5567 139.864 30.4234C139.504 31.2901 138.991 32.0434 138.324 32.6834C137.671 33.3234 136.897 33.8234 136.004 34.1834C135.111 34.5301 134.137 34.7034 133.084 34.7034ZM133.084 33.3834C133.924 33.3834 134.697 33.2434 135.404 32.9634C136.124 32.6701 136.744 32.2634 137.264 31.7434C137.797 31.2101 138.211 30.5967 138.504 29.9034C138.797 29.1967 138.944 28.4234 138.944 27.5834C138.944 26.7434 138.797 25.9767 138.504 25.2834C138.211 24.5767 137.797 23.9634 137.264 23.4434C136.744 22.9101 136.124 22.5034 135.404 22.2234C134.697 21.9301 133.924 21.7834 133.084 21.7834C132.244 21.7834 131.464 21.9301 130.744 22.2234C130.024 22.5034 129.397 22.9101 128.864 23.4434C128.344 23.9634 127.931 24.5767 127.624 25.2834C127.331 25.9767 127.184 26.7434 127.184 27.5834C127.184 28.4101 127.331 29.1767 127.624 29.8834C127.931 30.5901 128.344 31.2101 128.864 31.7434C129.397 32.2634 130.024 32.6701 130.744 32.9634C131.464 33.2434 132.244 33.3834 133.084 33.3834ZM144.741 34.5834V20.5834H149.981C151.168 20.5834 152.188 20.7767 153.041 21.1634C153.895 21.5367 154.548 22.0834 155.001 22.8034C155.468 23.5101 155.701 24.3701 155.701 25.3834C155.701 26.3701 155.468 27.2234 155.001 27.9434C154.548 28.6501 153.895 29.1967 153.041 29.5834C152.188 29.9567 151.168 30.1434 149.981 30.1434H145.561L146.221 29.4634V34.5834H144.741ZM154.301 34.5834L150.701 29.5034H152.301L155.921 34.5834H154.301ZM146.221 29.5834L145.561 28.8834H149.941C151.341 28.8834 152.401 28.5767 153.121 27.9634C153.855 27.3501 154.221 26.4901 154.221 25.3834C154.221 24.2634 153.855 23.3967 153.121 22.7834C152.401 22.1701 151.341 21.8634 149.941 21.8634H145.561L146.221 21.1634V29.5834ZM161.514 26.8434H168.914V28.1034H161.514V26.8434ZM161.674 33.3034H170.094V34.5834H160.194V20.5834H169.794V21.8634H161.674V33.3034Z" fill="white"/>
<path d="M72.78 26.8434V25.8434H71.78V26.8434H72.78ZM80.18 26.8434H81.18V25.8434H80.18V26.8434ZM80.18 28.1034V29.1034H81.18V28.1034H80.18ZM72.78 28.1034H71.78V29.1034H72.78V28.1034ZM72.94 33.3034H71.94V34.3034H72.94V33.3034ZM81.36 33.3034H82.36V32.3034H81.36V33.3034ZM81.36 34.5834V35.5834H82.36V34.5834H81.36ZM71.46 34.5834H70.46V35.5834H71.46V34.5834ZM71.46 20.5834V19.5834H70.46V20.5834H71.46ZM81.06 20.5834H82.06V19.5834H81.06V20.5834ZM81.06 21.8634V22.8634H82.06V21.8634H81.06ZM72.94 21.8634V20.8634H71.94V21.8634H72.94ZM72.78 27.8434H80.18V25.8434H72.78V27.8434ZM79.18 26.8434V28.1034H81.18V26.8434H79.18ZM80.18 27.1034H72.78V29.1034H80.18V27.1034ZM73.78 28.1034V26.8434H71.78V28.1034H73.78ZM72.94 34.3034H81.36V32.3034H72.94V34.3034ZM80.36 33.3034V34.5834H82.36V33.3034H80.36ZM81.36 33.5834H71.46V35.5834H81.36V33.5834ZM72.46 34.5834V20.5834H70.46V34.5834H72.46ZM71.46 21.5834H81.06V19.5834H71.46V21.5834ZM80.06 20.5834V21.8634H82.06V20.5834H80.06ZM81.06 20.8634H72.94V22.8634H81.06V20.8634ZM71.94 21.8634V33.3034H73.94V21.8634H71.94ZM83.7231 34.5834L82.9192 33.9887L81.7396 35.5834H83.7231V34.5834ZM89.4631 26.8234H90.4631V23.7899L88.6592 26.2287L89.4631 26.8234ZM89.4631 27.9634L88.6561 28.5539L90.4631 31.0235V27.9634H89.4631ZM84.0631 20.5834V19.5834H82.0923L83.2561 21.1739L84.0631 20.5834ZM85.7631 20.5834L86.5681 19.9901L86.2684 19.5834H85.7631V20.5834ZM90.3031 26.7434L90.3334 27.7429L92.2395 27.6852L91.1081 26.1501L90.3031 26.7434ZM89.6431 26.7634L88.8372 26.1714L87.6223 27.8251L89.6734 27.7629L89.6431 26.7634ZM94.1831 20.5834V19.5834H93.6769L93.3772 19.9914L94.1831 20.5834ZM95.7831 20.5834L96.5895 21.1749L97.7568 19.5834H95.7831V20.5834ZM90.4431 27.8634H89.4431V30.9174L91.2495 28.4549L90.4431 27.8634ZM90.4431 26.8234L91.2481 26.2301L89.4431 23.7814V26.8234H90.4431ZM96.1631 34.5834V35.5834H98.1425L96.9681 33.9901L96.1631 34.5834ZM94.4431 34.5834L93.6376 35.1759L93.9373 35.5834H94.4431V34.5834ZM89.6031 28.0034V27.0034H87.6262L88.7976 28.5959L89.6031 28.0034ZM90.2231 28.0034L91.031 28.5927L92.1904 27.0034H90.2231V28.0034ZM85.4231 34.5834V35.5834H85.9314L86.231 35.1727L85.4231 34.5834ZM84.5271 35.1781L90.2671 27.4181L88.6592 26.2287L82.9192 33.9887L84.5271 35.1781ZM88.4631 26.8234V27.9634H90.4631V26.8234H88.4631ZM90.2701 27.3729L84.8701 19.9929L83.2561 21.1739L88.6561 28.5539L90.2701 27.3729ZM84.0631 21.5834H85.7631V19.5834H84.0631V21.5834ZM84.9581 21.1767L89.4981 27.3367L91.1081 26.1501L86.5681 19.9901L84.9581 21.1767ZM90.2728 25.7439L89.6128 25.7639L89.6734 27.7629L90.3334 27.7429L90.2728 25.7439ZM90.449 27.3554L94.989 21.1754L93.3772 19.9914L88.8372 26.1714L90.449 27.3554ZM94.1831 21.5834H95.7831V19.5834H94.1831V21.5834ZM94.9768 19.9919L89.6368 27.2719L91.2495 28.4549L96.5895 21.1749L94.9768 19.9919ZM91.4431 27.8634V26.8234H89.4431V27.8634H91.4431ZM89.6382 27.4167L95.3582 35.1767L96.9681 33.9901L91.2481 26.2301L89.6382 27.4167ZM96.1631 33.5834H94.4431V35.5834H96.1631V33.5834ZM95.2487 33.9909L90.4087 27.4109L88.7976 28.5959L93.6376 35.1759L95.2487 33.9909ZM89.6031 29.0034H90.2231V27.0034H89.6031V29.0034ZM89.4152 27.4141L84.6152 33.9941L86.231 35.1727L91.031 28.5927L89.4152 27.4141ZM85.4231 33.5834H83.7231V35.5834H85.4231V33.5834ZM99.2998 34.5834H98.2998V35.5834H99.2998V34.5834ZM99.2998 20.5834V19.5834H98.2998V20.5834H99.2998ZM107.6 21.1634L107.187 22.0743L107.199 22.0796L107.6 21.1634ZM109.56 22.8034L108.714 23.3362L108.719 23.3454L108.725 23.3545L109.56 22.8034ZM109.56 27.9434L108.721 27.3995L108.718 27.4034L109.56 27.9434ZM107.6 29.5834L108.013 30.4943H108.013L107.6 29.5834ZM100.12 30.1634L99.3922 29.4774L97.8026 31.1634H100.12V30.1634ZM100.78 29.4634H101.78V26.9451L100.052 28.7774L100.78 29.4634ZM100.78 34.5834V35.5834H101.78V34.5834H100.78ZM100.78 29.5834L100.043 30.2591L101.78 32.1542V29.5834H100.78ZM100.12 28.8634V27.8634H97.8466L99.3827 29.5391L100.12 28.8634ZM107.68 27.9634L108.32 28.7316L108.321 28.7305L107.68 27.9634ZM107.68 22.7834L107.031 23.5447L107.038 23.5505L107.68 22.7834ZM100.12 21.8634L99.3922 21.1774L97.8026 22.8634H100.12V21.8634ZM100.78 21.1634H101.78V18.6451L100.052 20.4774L100.78 21.1634ZM100.3 34.5834V20.5834H98.2998V34.5834H100.3ZM99.2998 21.5834H104.54V19.5834H99.2998V21.5834ZM104.54 21.5834C105.621 21.5834 106.493 21.7598 107.187 22.0742L108.013 20.2525C107 19.7937 105.832 19.5834 104.54 19.5834V21.5834ZM107.199 22.0796C107.887 22.3805 108.377 22.8018 108.714 23.3362L110.406 22.2706C109.836 21.365 109.019 20.6929 108.001 20.2472L107.199 22.0796ZM108.725 23.3545C109.064 23.8678 109.26 24.5269 109.26 25.3834H111.26C111.26 24.2132 110.989 23.1523 110.394 22.2523L108.725 23.3545ZM109.26 25.3834C109.26 26.2067 109.067 26.8647 108.721 27.3995L110.399 28.4873C110.986 27.5821 111.26 26.5334 111.26 25.3834H109.26ZM108.718 27.4034C108.381 27.9292 107.886 28.356 107.187 28.6725L108.013 30.4943C109.021 30.0375 109.832 29.3709 110.402 28.4834L108.718 27.4034ZM107.187 28.6725C106.493 28.987 105.621 29.1634 104.54 29.1634V31.1634C105.832 31.1634 107 30.9531 108.013 30.4943L107.187 28.6725ZM104.54 29.1634H100.12V31.1634H104.54V29.1634ZM100.847 30.8494L101.507 30.1494L100.052 28.7774L99.3922 29.4774L100.847 30.8494ZM99.7798 29.4634V34.5834H101.78V29.4634H99.7798ZM100.78 33.5834H99.2998V35.5834H100.78V33.5834ZM101.517 28.9077L100.857 28.1877L99.3827 29.5391L100.043 30.2591L101.517 28.9077ZM100.12 29.8634H104.5V27.8634H100.12V29.8634ZM104.5 29.8634C106.022 29.8634 107.35 29.5399 108.32 28.7316L107.04 27.1952C106.57 27.5869 105.777 27.8634 104.5 27.8634V29.8634ZM108.321 28.7305C109.319 27.8961 109.78 26.7342 109.78 25.3834H107.78C107.78 26.2459 107.507 26.804 107.038 27.1963L108.321 28.7305ZM109.78 25.3834C109.78 24.0237 109.322 22.8531 108.321 22.0163L107.038 23.5505C107.504 23.9404 107.78 24.5031 107.78 25.3834H109.78ZM108.328 22.0222C107.358 21.1955 106.027 20.8634 104.5 20.8634V22.8634C105.773 22.8634 106.562 23.1446 107.031 23.5446L108.328 22.0222ZM104.5 20.8634H100.12V22.8634H104.5V20.8634ZM100.847 22.5494L101.507 21.8494L100.052 20.4774L99.3922 21.1774L100.847 22.5494ZM99.7798 21.1634V29.5834H101.78V21.1634H99.7798ZM114.46 34.5834H113.46V35.5834H114.46V34.5834ZM114.46 20.5834V19.5834H113.46V20.5834H114.46ZM115.94 20.5834H116.94V19.5834H115.94V20.5834ZM115.94 33.3034H114.94V34.3034H115.94V33.3034ZM123.78 33.3034H124.78V32.3034H123.78V33.3034ZM123.78 34.5834V35.5834H124.78V34.5834H123.78ZM115.46 34.5834V20.5834H113.46V34.5834H115.46ZM114.46 21.5834H115.94V19.5834H114.46V21.5834ZM114.94 20.5834V33.3034H116.94V20.5834H114.94ZM115.94 34.3034H123.78V32.3034H115.94V34.3034ZM122.78 33.3034V34.5834H124.78V33.3034H122.78ZM123.78 33.5834H114.46V35.5834H123.78V33.5834ZM130.144 34.1834L129.77 35.1109L129.778 35.1143L129.787 35.1174L130.144 34.1834ZM127.804 32.6834L127.097 33.3905L127.104 33.3977L127.111 33.4048L127.804 32.6834ZM126.264 30.4234L125.34 30.807L125.344 30.8156L125.348 30.8242L126.264 30.4234ZM126.264 24.7634L125.345 24.3678L125.343 24.3747L126.264 24.7634ZM127.804 22.5034L128.504 23.2178L128.504 23.2176L127.804 22.5034ZM130.144 21.0034L130.506 21.9357L130.518 21.9309L130.144 21.0034ZM136.004 21.0034L135.63 21.931L135.642 21.9357L136.004 21.0034ZM138.324 22.4834L137.624 23.1978L137.631 23.2048L138.324 22.4834ZM139.864 24.7434L138.94 25.127L138.945 25.139L139.864 24.7434ZM139.864 30.4234L138.945 30.0277L138.94 30.0398L139.864 30.4234ZM138.324 32.6834L137.631 31.962L137.624 31.969L138.324 32.6834ZM136.004 34.1834L136.366 35.1157L136.378 35.1109L136.004 34.1834ZM135.404 32.9634L135.772 33.8931L135.781 33.8895L135.404 32.9634ZM137.264 31.7434L136.557 31.0363L137.264 31.7434ZM138.504 29.9034L139.425 30.293L139.427 30.2868L138.504 29.9034ZM138.504 25.2834L137.58 25.6668L137.583 25.673L138.504 25.2834ZM137.264 23.4434L136.548 24.1415L136.557 24.1506L136.566 24.1594L137.264 23.4434ZM135.404 22.2234L135.021 23.147L135.031 23.1513L135.041 23.1554L135.404 22.2234ZM130.744 22.2234L131.106 23.1554L131.114 23.1525L131.121 23.1495L130.744 22.2234ZM128.864 23.4434L128.157 22.7363V22.7363L128.864 23.4434ZM127.624 25.2834L126.707 24.8853L126.703 24.8938L127.624 25.2834ZM127.624 29.8834L126.7 30.2668L126.703 30.2742L126.707 30.2815L127.624 29.8834ZM128.864 31.7434L128.148 32.4415L128.157 32.4506L128.166 32.4594L128.864 31.7434ZM130.744 32.9634L130.367 33.8895L130.374 33.8925L130.381 33.8954L130.744 32.9634ZM133.084 33.7034C132.142 33.7034 131.284 33.5488 130.501 33.2493L129.787 35.1174C130.817 35.5113 131.919 35.7034 133.084 35.7034V33.7034ZM130.518 33.2559C129.738 32.9416 129.067 32.5099 128.496 31.962L127.111 33.4048C127.874 34.1369 128.763 34.7052 129.77 35.1109L130.518 33.2559ZM128.511 31.9763C127.947 31.4119 127.504 30.7626 127.18 30.0226L125.348 30.8242C125.771 31.7908 126.355 32.6483 127.097 33.3905L128.511 31.9763ZM127.187 30.0398C126.882 29.3057 126.724 28.4908 126.724 27.5834H124.724C124.724 28.7293 124.925 29.8078 125.34 30.807L127.187 30.0398ZM126.724 27.5834C126.724 26.6757 126.883 25.8697 127.185 25.1521L125.343 24.3747C124.925 25.3638 124.724 26.4377 124.724 27.5834H126.724ZM127.182 25.159C127.506 24.4079 127.946 23.7638 128.504 23.2178L127.104 21.789C126.355 22.523 125.769 23.3855 125.345 24.3678L127.182 25.159ZM128.504 23.2176C129.071 22.6617 129.735 22.2346 130.506 21.9357L129.782 20.0711C128.766 20.4655 127.87 21.0385 127.104 21.7892L128.504 23.2176ZM130.518 21.9309C131.28 21.6237 132.132 21.4634 133.084 21.4634V19.4634C131.903 19.4634 130.794 19.6631 129.77 20.0759L130.518 21.9309ZM133.084 21.4634C134.021 21.4634 134.866 21.6231 135.63 21.9309L136.378 20.0759C135.355 19.6637 134.253 19.4634 133.084 19.4634V21.4634ZM135.642 21.9357C136.415 22.2357 137.072 22.657 137.624 23.1978L139.024 21.769C138.269 21.0298 137.379 20.4644 136.366 20.0711L135.642 21.9357ZM137.631 23.2048C138.197 23.7478 138.632 24.3856 138.94 25.127L140.787 24.3598C140.375 23.3678 139.784 22.499 139.016 21.762L137.631 23.2048ZM138.945 25.139C139.26 25.8701 139.424 26.6807 139.424 27.5834H141.424C141.424 26.4328 141.214 25.35 140.782 24.3478L138.945 25.139ZM139.424 27.5834C139.424 28.4861 139.26 29.2967 138.945 30.0278L140.782 30.819C141.214 29.8168 141.424 28.734 141.424 27.5834H139.424ZM138.94 30.0398C138.632 30.7812 138.197 31.419 137.631 31.962L139.016 33.4048C139.784 32.6678 140.375 31.799 140.787 30.807L138.94 30.0398ZM137.624 31.969C137.069 32.5125 136.408 32.9422 135.63 33.2559L136.378 35.1109C137.386 34.7046 138.272 34.1343 139.024 33.3978L137.624 31.969ZM135.642 33.2511C134.875 33.5488 134.026 33.7034 133.084 33.7034V35.7034C134.249 35.7034 135.346 35.5113 136.366 35.1157L135.642 33.2511ZM133.084 34.3834C134.037 34.3834 134.937 34.2242 135.772 33.8931L135.036 32.0337C134.458 32.2626 133.811 32.3834 133.084 32.3834V34.3834ZM135.781 33.8895C136.617 33.5488 137.351 33.0701 137.971 32.4505L136.557 31.0363C136.136 31.4567 135.63 31.7913 135.027 32.0373L135.781 33.8895ZM137.971 32.4505C138.595 31.8263 139.081 31.1052 139.425 30.293L137.583 29.5138C137.34 30.0883 136.999 30.5938 136.557 31.0363L137.971 32.4505ZM139.427 30.2868C139.776 29.4472 139.944 28.542 139.944 27.5834H137.944C137.944 28.3048 137.818 28.9463 137.58 29.52L139.427 30.2868ZM139.944 27.5834C139.944 26.625 139.776 25.7239 139.425 24.8938L137.583 25.673C137.818 26.2296 137.944 26.8617 137.944 27.5834H139.944ZM139.427 24.9C139.084 24.0718 138.595 23.3445 137.962 22.7274L136.566 24.1594C137 24.5823 137.337 25.0816 137.58 25.6668L139.427 24.9ZM137.98 22.7453C137.356 22.1058 136.614 21.6212 135.766 21.2914L135.041 23.1554C135.633 23.3856 136.131 23.7143 136.548 24.1415L137.98 22.7453ZM135.787 21.2998C134.948 20.9513 134.043 20.7834 133.084 20.7834V22.7834C133.805 22.7834 134.447 22.9088 135.021 23.147L135.787 21.2998ZM133.084 20.7834C132.125 20.7834 131.216 20.9514 130.367 21.2973L131.121 23.1495C131.712 22.9088 132.363 22.7834 133.084 22.7834V20.7834ZM130.381 21.2914C129.535 21.6204 128.791 22.1025 128.157 22.7363L129.571 24.1505C130.004 23.7176 130.512 23.3864 131.106 23.1554L130.381 21.2914ZM128.157 22.7363C127.544 23.3494 127.061 24.0689 126.707 24.8853L128.541 25.6815C128.8 25.0846 129.144 24.5774 129.571 24.1505L128.157 22.7363ZM126.703 24.8938C126.352 25.7239 126.184 26.625 126.184 27.5834H128.184C128.184 26.8617 128.309 26.2296 128.545 25.673L126.703 24.8938ZM126.184 27.5834C126.184 28.531 126.353 29.4291 126.7 30.2668L128.547 29.5C128.309 28.9244 128.184 28.2892 128.184 27.5834H126.184ZM126.707 30.2815C127.06 31.0957 127.54 31.8182 128.148 32.4415L129.58 31.0453C129.148 30.6019 128.801 30.0844 128.541 29.4853L126.707 30.2815ZM128.166 32.4594C128.796 33.0734 129.532 33.5496 130.367 33.8895L131.121 32.0373C130.515 31.7905 129.999 31.4534 129.562 31.0274L128.166 32.4594ZM130.381 33.8954C131.227 34.2241 132.131 34.3834 133.084 34.3834V32.3834C132.357 32.3834 131.701 32.2627 131.106 32.0314L130.381 33.8954ZM144.741 34.5834H143.741V35.5834H144.741V34.5834ZM144.741 20.5834V19.5834H143.741V20.5834H144.741ZM153.041 21.1634L152.628 22.0743L152.64 22.0796L153.041 21.1634ZM155.001 22.8034L154.155 23.3362L154.161 23.3454L154.167 23.3545L155.001 22.8034ZM155.001 27.9434L154.162 27.3995L154.16 27.4034L155.001 27.9434ZM153.041 29.5834L153.442 30.4996L153.454 30.4943L153.041 29.5834ZM145.561 30.1434L144.844 29.4469L143.197 31.1434H145.561V30.1434ZM146.221 29.4634H147.221V26.9973L145.504 28.7669L146.221 29.4634ZM146.221 34.5834V35.5834H147.221V34.5834H146.221ZM154.301 34.5834L153.485 35.1616L153.784 35.5834H154.301V34.5834ZM150.701 29.5034V28.5034H148.767L149.885 30.0816L150.701 29.5034ZM152.301 29.5034L153.116 28.9231L152.817 28.5034H152.301V29.5034ZM155.921 34.5834V35.5834H157.862L156.736 34.0031L155.921 34.5834ZM146.221 29.5834L145.494 30.2694L147.221 32.1017V29.5834H146.221ZM145.561 28.8834V27.8834H143.244L144.834 29.5694L145.561 28.8834ZM153.121 27.9634L152.48 27.1963L152.473 27.2022L153.121 27.9634ZM153.121 22.7834L152.473 23.5447L152.48 23.5505L153.121 22.7834ZM145.561 21.8634L144.834 21.1774L143.244 22.8634H145.561V21.8634ZM146.221 21.1634H147.221V18.6451L145.494 20.4774L146.221 21.1634ZM145.741 34.5834V20.5834H143.741V34.5834H145.741ZM144.741 21.5834H149.981V19.5834H144.741V21.5834ZM149.981 21.5834C151.062 21.5834 151.935 21.7598 152.629 22.0742L153.454 20.2525C152.441 19.7937 151.274 19.5834 149.981 19.5834V21.5834ZM152.64 22.0796C153.328 22.3805 153.819 22.8018 154.155 23.3362L155.847 22.2706C155.277 21.365 154.461 20.6929 153.442 20.2472L152.64 22.0796ZM154.167 23.3545C154.506 23.8678 154.701 24.5269 154.701 25.3834H156.701C156.701 24.2132 156.43 23.1523 155.836 22.2523L154.167 23.3545ZM154.701 25.3834C154.701 26.2067 154.509 26.8647 154.162 27.3995L155.84 28.4873C156.427 27.5821 156.701 26.5334 156.701 25.3834H154.701ZM154.16 27.4034C153.822 27.9292 153.327 28.356 152.629 28.6725L153.454 30.4943C154.462 30.0375 155.274 29.3709 155.843 28.4834L154.16 27.4034ZM152.64 28.6672C151.943 28.9723 151.066 29.1434 149.981 29.1434V31.1434C151.269 31.1434 152.433 30.9411 153.442 30.4996L152.64 28.6672ZM149.981 29.1434H145.561V31.1434H149.981V29.1434ZM146.279 30.8399L146.939 30.1599L145.504 28.7669L144.844 29.4469L146.279 30.8399ZM145.221 29.4634V34.5834H147.221V29.4634H145.221ZM146.221 33.5834H144.741V35.5834H146.221V33.5834ZM155.117 34.0052L151.517 28.9252L149.885 30.0816L153.485 35.1616L155.117 34.0052ZM150.701 30.5034H152.301V28.5034H150.701V30.5034ZM151.487 30.0837L155.107 35.1637L156.736 34.0031L153.116 28.9231L151.487 30.0837ZM155.921 33.5834H154.301V35.5834H155.921V33.5834ZM146.949 28.8974L146.289 28.1974L144.834 29.5694L145.494 30.2694L146.949 28.8974ZM145.561 29.8834H149.941V27.8834H145.561V29.8834ZM149.941 29.8834C151.468 29.8834 152.799 29.5513 153.77 28.7246L152.473 27.2022C152.003 27.6022 151.214 27.8834 149.941 27.8834V29.8834ZM153.763 28.7305C154.76 27.8961 155.221 26.7342 155.221 25.3834H153.221C153.221 26.2459 152.949 26.804 152.48 27.1963L153.763 28.7305ZM155.221 25.3834C155.221 24.0237 154.763 22.8531 153.763 22.0163L152.48 23.5505C152.946 23.9404 153.221 24.5031 153.221 25.3834H155.221ZM153.77 22.0222C152.799 21.1955 151.468 20.8634 149.941 20.8634V22.8634C151.214 22.8634 152.003 23.1446 152.473 23.5446L153.77 22.0222ZM149.941 20.8634H145.561V22.8634H149.941V20.8634ZM146.289 22.5494L146.949 21.8494L145.494 20.4774L144.834 21.1774L146.289 22.5494ZM145.221 21.1634V29.5834H147.221V21.1634H145.221ZM161.514 26.8434V25.8434H160.514V26.8434H161.514ZM168.914 26.8434H169.914V25.8434H168.914V26.8434ZM168.914 28.1034V29.1034H169.914V28.1034H168.914ZM161.514 28.1034H160.514V29.1034H161.514V28.1034ZM161.674 33.3034H160.674V34.3034H161.674V33.3034ZM170.094 33.3034H171.094V32.3034H170.094V33.3034ZM170.094 34.5834V35.5834H171.094V34.5834H170.094ZM160.194 34.5834H159.194V35.5834H160.194V34.5834ZM160.194 20.5834V19.5834H159.194V20.5834H160.194ZM169.794 20.5834H170.794V19.5834H169.794V20.5834ZM169.794 21.8634V22.8634H170.794V21.8634H169.794ZM161.674 21.8634V20.8634H160.674V21.8634H161.674ZM161.514 27.8434H168.914V25.8434H161.514V27.8434ZM167.914 26.8434V28.1034H169.914V26.8434H167.914ZM168.914 27.1034H161.514V29.1034H168.914V27.1034ZM162.514 28.1034V26.8434H160.514V28.1034H162.514ZM161.674 34.3034H170.094V32.3034H161.674V34.3034ZM169.094 33.3034V34.5834H171.094V33.3034H169.094ZM170.094 33.5834H160.194V35.5834H170.094V33.5834ZM161.194 34.5834V20.5834H159.194V34.5834H161.194ZM160.194 21.5834H169.794V19.5834H160.194V21.5834ZM168.794 20.5834V21.8634H170.794V20.5834H168.794ZM169.794 20.8634H161.674V22.8634H169.794V20.8634ZM160.674 21.8634V33.3034H162.674V21.8634H160.674Z" fill="white" mask="url(#path-2-outside-1_1_373)"/>
</svg>
